# xmcd
#
# Track frame offsets: 
#        150
#        14597
#        30403
#        45562
#        72736
#        86483
#        100467
#        119996
#        132841
#        149093
#        168326
#        181599
#        206614
#        232207
#        244712
#
# Disc length: 3522 seconds
#
# Revision: 0
# Processed by: cddbd v1.5.2PL0 Copyright (c) Steve Scherf et al.
# Submitted via: ExactAudioCopy v0.95b4
#
DISCID=df0dc00f
DTITLE=Various Artist - Блюз FM. Слезы души
DYEAR=2006
DGENRE=Blues
TTITLE0=Андрей Макаревич и Оркестр креольского танго - Пони
TTITLE1=Пилот - Блюз
TTITLE2=Юта - Бриллианты
TTITLE3=ЧайФ - Пригородный блюз №3
TTITLE4=Animal ДжаZZ - Б. блюз
TTITLE5=Сергей Морозов - Блюз холодных рук
TTITLE6=Звезда Полынь - Телохранитель
TTITLE7=4ехов - Дым
TTITLE8=А. Церпята - Блюз маляра
TTITLE9=Комаров - Сегодня ночью ты думал о ней
TTITLE10=Небо СССР - Блюз солдата
TTITLE11=Чистяков Бэнд - Кислотный дождь
TTITLE12=Инна Желанная и Сергей Калачев - Легко (Блюз до-минор)
TTITLE13=Юга - Крайний
TTITLE14=Александр Чернецкий и Разные люди - Ты здесь
EXTD=
EXTT0=
EXTT1=
EXTT2=
EXTT3=
EXTT4=
EXTT5=
EXTT6=
EXTT7=
EXTT8=
EXTT9=
EXTT10=
EXTT11=
EXTT12=
EXTT13=
EXTT14=
PLAYORDER=
